<?xml version="1.0" standalone="no"?>
<!DOCTYPE svg PUBLIC "-//W3C//DTD SVG 20010904//EN"
 "http://www.w3.org/TR/2001/REC-SVG-20010904/DTD/svg10.dtd">
<svg version="1.0" xmlns="http://www.w3.org/2000/svg"
 width="579.000000pt" height="300.000000pt" viewBox="0 0 579.000000 300.000000"
 preserveAspectRatio="xMidYMid meet">

<g transform="translate(0.000000,300.000000) scale(0.100000,-0.100000)"
fill="#000000" stroke="none">
<path d="M0 1500 l0 -1500 2895 0 2895 0 0 1500 0 1500 -2895 0 -2895 0 0
-1500z m1940 635 c61 -32 60 -15 60 -680 0 -522 -2 -610 -15 -635 -32 -62 -9
-60 -747 -60 -752 0 -724 -3 -761 70 -16 32 -17 78 -15 635 3 562 4 603 21
629 37 56 24 55 755 56 583 0 677 -2 702 -15z m2565 -244 c22 -15 51 -47 65
-71 23 -41 25 -56 25 -161 0 -111 -1 -117 -30 -164 -42 -67 -86 -88 -197 -93
l-88 -4 0 260 0 261 33 3 c78 8 152 -3 192 -31z m251 31 c8 -5 13 -90 15 -267
l4 -260 -47 -3 -48 -3 0 264 c0 145 3 267 7 270 9 9 55 9 69 -1z m-1991 -14
c64 -29 90 -139 47 -198 l-24 -32 22 -20 c66 -62 49 -202 -30 -240 -23 -11
-60 -17 -107 -18 l-73 0 0 244 c0 134 3 251 6 260 8 20 119 23 159 4z m354 -1
c52 -26 87 -108 75 -174 -4 -18 -23 -52 -44 -75 l-38 -43 54 -106 c30 -59 54
-109 54 -113 0 -3 -23 -6 -51 -6 l-50 0 -46 100 c-26 55 -49 100 -52 100 -3 0
-6 -44 -6 -97 l0 -98 -42 -3 -43 -3 0 265 0 266 83 0 c45 0 93 -6 106 -13z
m571 -247 c71 -143 130 -262 130 -265 0 -3 -119 -5 -265 -5 l-265 0 132 265
c73 146 134 265 135 265 2 0 61 -117 133 -260z m355 115 c32 -80 62 -148 67
-151 4 -3 8 63 8 145 l0 151 40 0 40 0 0 -266 0 -265 -37 3 -38 3 -51 120
c-29 66 -58 134 -66 150 -12 27 -13 14 -16 -123 l-3 -153 -42 3 -42 3 -3 250
c-1 137 0 255 3 262 2 8 21 13 43 13 l38 0 59 -145z m1075 106 c0 -40 0 -40
-42 -43 l-43 -3 -5 -220 -5 -220 -42 -3 -43 -3 -2 223 -3 223 -42 3 c-43 3
-43 3 -43 43 l0 39 135 0 135 0 0 -39z m-2543 -684 c47 -47 40 -167 -12 -201
-29 -19 -96 -31 -130 -22 l-25 6 0 125 0 124 33 3 c55 5 108 -9 134 -35z m651
28 c1 -1 0 -10 -4 -19 -5 -13 -13 -16 -31 -11 -35 8 -63 -3 -63 -26 0 -13 15
-26 47 -42 57 -26 73 -59 53 -106 -9 -23 -23 -34 -50 -42 -50 -15 -112 -4
-108 19 2 13 14 17 44 17 23 0 48 6 56 13 23 19 11 49 -25 61 -46 17 -67 40
-67 76 0 34 21 60 55 68 17 4 85 -2 93 -8z m279 1 c3 -3 3 -13 -1 -22 -5 -12
-14 -15 -36 -10 -72 14 -84 -34 -16 -64 109 -46 77 -160 -44 -160 -41 0 -60
10 -60 31 0 15 9 18 53 21 45 3 52 6 55 25 2 16 -8 27 -47 49 -49 26 -57 40
-51 84 3 22 29 48 54 54 23 5 86 0 93 -8z m369 6 c10 -7 84 -228 84 -251 0 -6
-11 -11 -24 -11 -18 0 -27 8 -35 30 -9 27 -15 30 -50 30 -34 0 -40 -3 -50 -30
-7 -20 -17 -30 -30 -30 -12 0 -21 6 -21 13 0 6 16 65 36 129 34 108 41 120 74
127 3 0 10 -3 16 -7z m243 -10 c54 -27 61 -76 20 -133 -9 -12 -6 -24 15 -57
32 -52 33 -62 2 -62 -20 0 -32 12 -60 62 l-34 61 24 20 c35 27 30 71 -8 75
l-28 3 0 -110 0 -111 -25 0 -25 0 0 129 c0 94 3 131 13 134 26 11 73 6 106
-11z m439 -39 l3 -53 39 0 39 0 3 53 c3 48 5 52 28 52 l25 0 0 -130 0 -130
-27 -3 c-28 -3 -28 -3 -28 57 l0 61 -40 0 -39 0 -3 -57 c-3 -55 -4 -58 -30
-61 l-28 -3 0 136 0 136 28 -3 c25 -3 27 -7 30 -55z m501 46 c54 -19 68 -75
30 -123 l-21 -26 31 -50 c17 -28 31 -52 31 -55 0 -3 -13 -5 -29 -5 -24 0 -33
8 -61 61 l-33 62 22 17 c33 25 26 74 -11 78 l-28 3 0 -110 0 -111 -25 0 -25 0
0 135 0 135 44 0 c23 0 57 -5 75 -11z m349 -82 c2 -73 0 -88 -13 -93 -27 -11
-37 11 -43 85 -6 84 0 104 30 99 22 -3 23 -8 26 -91z m-3058 -41 c0 -69 -4
-127 -9 -130 -5 -4 -16 -3 -25 0 -13 5 -16 26 -16 130 l0 124 25 0 25 0 0
-124z m453 118 c16 -17 -8 -34 -49 -34 -42 0 -44 -1 -44 -30 0 -28 2 -30 41
-30 33 0 40 -3 37 -17 -2 -13 -14 -19 -41 -21 -35 -3 -37 -5 -37 -38 l0 -34
50 0 c43 0 50 -3 50 -20 0 -18 -7 -20 -75 -20 l-75 0 0 125 0 125 68 0 c38 0
71 -3 75 -6z m203 -111 c45 -144 44 -137 16 -141 -18 -3 -25 3 -33 27 -10 28
-15 31 -54 31 -40 0 -44 -2 -50 -30 -5 -24 -12 -30 -32 -30 -18 0 -24 4 -20
15 4 8 22 66 42 130 35 112 37 115 65 115 29 0 30 -3 66 -117z m724 97 c0 -16
-7 -20 -35 -20 l-35 0 0 -110 0 -110 -25 0 -25 0 0 110 0 110 -35 0 c-28 0
-35 4 -35 20 0 19 7 20 95 20 88 0 95 -1 95 -20z m660 0 c0 -16 -7 -20 -35
-20 l-35 0 0 -110 0 -110 -25 0 -25 0 0 110 0 110 -35 0 c-28 0 -35 4 -35 20
0 19 7 20 95 20 88 0 95 -1 95 -20z m508 3 c-2 -14 -15 -19 -51 -21 -45 -3
-47 -5 -47 -33 0 -27 2 -29 40 -29 33 0 40 -3 40 -20 0 -17 -7 -20 -40 -20
-39 0 -40 -1 -40 -35 l0 -35 51 0 c47 0 50 -2 47 -22 -3 -21 -9 -23 -75 -26
l-73 -3 0 131 0 130 76 0 c66 0 75 -2 72 -17z m412 -3 c0 -17 -7 -20 -50 -20
-49 0 -50 -1 -50 -30 0 -28 2 -30 40 -30 33 0 40 -3 40 -19 0 -16 -8 -20 -37
-23 -35 -3 -38 -6 -41 -35 l-3 -33 50 0 c48 0 51 -2 51 -25 0 -24 -2 -25 -75
-25 l-75 0 0 130 0 130 75 0 c68 0 75 -2 75 -20z m98 -207 c-2 -22 -8 -28 -28
-28 -20 0 -26 6 -28 28 -3 24 0 27 28 27 28 0 31 -3 28 -27z"/>
<path d="M1094 1871 c-30 -13 -64 -59 -64 -87 0 -12 4 -34 9 -47 8 -21 6 -26
-10 -30 -17 -5 -18 -3 -8 9 10 13 8 13 -14 5 -99 -38 -197 -142 -197 -209 0
-31 38 -71 79 -83 35 -10 37 -13 32 -43 l-5 -31 -7 30 c-4 20 -7 4 -8 -50 -1
-99 11 -145 51 -190 39 -45 91 -48 137 -10 29 25 31 25 60 10 38 -19 123 -19
187 0 27 8 52 15 57 15 13 0 7 -47 -8 -60 -25 -21 -119 -13 -188 15 -34 14
-69 29 -77 32 -33 13 41 -38 91 -64 36 -18 75 -28 116 -31 59 -4 64 -3 94 27
29 30 31 36 26 81 -6 47 -5 49 27 68 38 23 85 108 93 171 6 45 21 51 47 22 17
-18 17 -22 -2 -63 -17 -40 -64 -90 -138 -146 -27 -21 -25 -21 24 3 94 46 172
131 172 189 0 33 -44 83 -80 91 -27 6 -30 11 -30 43 0 47 -48 131 -95 169 -19
15 -35 33 -35 40 0 17 36 26 59 14 31 -17 70 -109 79 -186 8 -69 8 -69 16 -30
9 51 -7 156 -32 204 -35 69 -112 83 -168 30 -21 -20 -23 -20 -49 -3 -35 23
-142 23 -202 1 -37 -14 -42 -14 -47 -1 -10 26 11 51 47 57 45 7 119 -8 186
-38 48 -22 52 -22 31 -5 -73 58 -208 101 -256 81z m200 -123 c14 -6 28 -19 31
-29 8 -24 -31 -94 -63 -115 -23 -15 -26 -14 -70 24 -44 37 -92 96 -92 113 0
18 157 24 194 7z m206 -135 c35 -75 19 -113 -49 -113 -40 0 -101 17 -101 28 1
29 32 147 45 173 l17 32 34 -39 c18 -21 42 -58 54 -81z m-535 36 c-21 -29 -39
-75 -47 -110 -12 -59 -25 -72 -48 -44 -25 30 -3 84 60 147 32 32 61 58 64 58
2 0 -11 -23 -29 -51z m132 -22 c12 -17 24 -48 28 -67 l6 -36 -63 -22 c-70 -25
-138 -29 -138 -9 0 21 56 131 76 148 41 35 60 32 91 -14z m167 -133 c20 -8 21
-48 1 -64 -21 -17 -65 2 -65 28 0 34 29 50 64 36z m296 -49 c0 -22 -48 -124
-72 -151 -37 -41 -69 -44 -97 -8 -24 30 -48 101 -37 111 23 24 206 67 206 48z
m-461 -36 c31 -11 32 -12 25 -58 -8 -53 -42 -151 -53 -151 -11 0 -55 51 -80
93 -27 44 -32 104 -11 118 20 12 80 11 119 -2z m-97 -176 c51 -52 55 -73 14
-73 -40 0 -80 64 -90 145 l-7 50 16 -35 c9 -19 39 -58 67 -87z m315 34 c35
-35 63 -71 63 -80 0 -11 -14 -17 -56 -23 -73 -9 -133 0 -156 24 -18 18 -18 22
-5 54 15 35 63 88 81 88 5 0 38 -28 73 -63z"/>
<path d="M4370 1661 l0 -181 31 0 c69 0 116 93 106 207 -9 98 -37 139 -101
150 l-36 6 0 -182z"/>
<path d="M2689 1833 c-1 -5 -2 -34 -3 -65 -1 -63 9 -73 44 -38 25 25 26 72 2
93 -19 18 -41 22 -43 10z"/>
<path d="M2690 1555 c0 -41 4 -75 9 -75 4 0 20 9 35 21 44 35 26 129 -25 129
-17 0 -19 -7 -19 -75z"/>
<path d="M3026 1833 c-3 -4 -6 -42 -6 -85 0 -78 1 -79 23 -73 74 22 78 132 5
158 -9 3 -19 3 -22 0z"/>
<path d="M3458 1631 c-54 -104 -98 -191 -98 -195 0 -3 88 -6 195 -6 107 0 195
3 195 6 0 3 -5 14 -10 25 -10 17 -23 19 -155 19 -80 0 -145 3 -144 8 0 4 26
59 58 122 l58 115 37 -72 c20 -40 36 -75 36 -78 0 -3 -22 -5 -50 -5 -38 0 -52
-4 -60 -19 -5 -11 -10 -22 -10 -25 0 -3 45 -6 100 -6 l100 0 -75 150 c-41 83
-76 150 -78 150 -1 0 -46 -85 -99 -189z"/>
<path d="M2460 1105 l0 -95 25 0 c42 0 75 42 75 92 0 24 -6 51 -14 60 -12 16
-56 38 -77 38 -5 0 -9 -43 -9 -95z"/>
<path d="M3838 1125 l-15 -50 24 -3 c35 -5 36 0 20 55 l-14 48 -15 -50z"/>
<path d="M2922 1135 c-17 -63 -16 -65 19 -65 23 0 30 4 26 14 -3 8 -11 33 -17
55 -6 23 -12 41 -13 41 -2 0 -8 -20 -15 -45z"/>
</g>
</svg>
