<?xml version="1.0" standalone="no"?>
<!DOCTYPE svg PUBLIC "-//W3C//DTD SVG 20010904//EN"
 "http://www.w3.org/TR/2001/REC-SVG-20010904/DTD/svg10.dtd">
<svg version="1.0" xmlns="http://www.w3.org/2000/svg"
 width="182.000000pt" height="163.000000pt" viewBox="0 0 182.000000 163.000000"
 preserveAspectRatio="xMidYMid meet">

<g transform="translate(0.000000,163.000000) scale(0.100000,-0.100000)"
fill="#000000" stroke="none">
<path d="M757 1340 c-74 -14 -111 -81 -90 -161 9 -33 8 -38 -9 -42 -16 -5 -17
-3 -6 10 11 14 10 15 -12 8 -42 -12 -129 -68 -176 -112 -44 -41 -83 -111 -84
-148 0 -35 39 -86 78 -102 l37 -14 -3 -94 c-9 -228 104 -362 230 -273 l27 19
68 -40 c133 -81 243 -102 311 -61 41 25 55 61 49 126 -5 51 -5 52 31 75 48 31
97 115 116 196 8 36 17 67 20 71 11 10 53 -16 58 -36 13 -50 -71 -163 -169
-229 -30 -20 -52 -37 -49 -40 10 -10 134 63 182 109 124 117 119 222 -11 269
-32 12 -35 16 -35 54 -1 59 -31 117 -99 187 -63 65 -72 82 -45 92 27 10 42 7
73 -19 39 -33 70 -117 78 -211 3 -40 10 -71 14 -68 15 9 10 170 -7 221 -35
107 -95 155 -165 134 -21 -6 -52 -23 -69 -38 -25 -21 -34 -23 -43 -13 -10 10
-8 12 6 7 34 -12 16 12 -34 43 -99 64 -201 94 -272 80z m198 -73 c77 -26 90
-37 30 -26 -56 10 -173 -4 -217 -27 -32 -17 -35 -16 -39 6 -6 30 12 60 39 66
15 3 32 7 37 9 19 6 90 -7 150 -28z m43 -87 c37 -23 40 -45 12 -99 -19 -39
-72 -91 -92 -91 -6 0 -46 36 -90 80 -111 110 -103 126 62 129 59 1 82 -3 108
-19z m187 -70 c45 -53 85 -134 85 -172 0 -15 -7 -34 -16 -42 -19 -19 -99 -21
-156 -4 l-39 11 6 46 c13 96 57 216 76 209 4 -2 24 -23 44 -48z m-611 -51
c-30 -46 -50 -96 -68 -181 -7 -32 -17 -35 -39 -10 -21 24 -23 41 -8 86 12 35
122 156 142 156 4 0 -8 -23 -27 -51z m159 -15 c29 -35 47 -82 47 -119 0 -16
-15 -26 -72 -48 -71 -27 -178 -38 -178 -18 0 15 43 115 63 146 27 41 68 75 92
75 11 0 33 -16 48 -36z m212 -176 c32 -14 35 -60 4 -82 -49 -34 -106 38 -59
76 26 21 23 21 55 6z m370 -85 c-23 -96 -109 -213 -155 -213 -37 0 -100 101
-100 161 0 27 139 76 219 78 42 1 43 0 36 -26z m-793 -43 c-2 -16 -6 -30 -8
-30 -2 0 -4 14 -4 30 0 17 4 30 8 30 5 0 7 -13 4 -30z m227 19 c19 -7 31 -18
31 -29 0 -68 -52 -230 -74 -230 -16 0 -73 72 -101 129 -27 53 -32 110 -13 129
15 15 114 16 157 1z m-114 -234 c59 -54 60 -75 5 -75 -43 0 -82 53 -106 145
-22 82 -17 95 16 36 17 -30 55 -78 85 -106z m364 79 c33 -30 70 -71 82 -91 27
-43 20 -49 -69 -59 -87 -9 -152 1 -179 29 -20 20 -22 26 -12 60 11 41 77 117
102 117 9 0 43 -25 76 -56z m-204 -164 c8 -13 -5 -13 -25 0 -13 8 -13 10 2 10
9 0 20 -4 23 -10z m325 -19 c0 -63 -94 -80 -218 -39 l-67 23 90 6 c50 4 108
14 130 22 58 22 65 21 65 -12z"/>
</g>
</svg>
